<mxfile host="app.diagrams.net" modified="2022-05-31T12:02:59.106Z" agent="5.0 (Macintosh; Intel Mac OS X 10_15_7) AppleWebKit/537.36 (KHTML, like Gecko) Chrome/101.0.0.0 Safari/537.36" etag="S2c085DtelliYkWFrKSi" version="18.1.3" type="github">
  <diagram id="YZ2rB1g7LrTlox4dIqGf" name="Page-1">
    <mxGraphModel dx="2581" dy="2071" grid="1" gridSize="10" guides="1" tooltips="1" connect="1" arrows="1" fold="1" page="1" pageScale="1" pageWidth="850" pageHeight="1100" math="0" shadow="0">
      <root>
        <mxCell id="0" />
        <mxCell id="1" parent="0" />
        <mxCell id="9U1QRrA1M3RrbsubNIXX-21" value="" style="rounded=1;whiteSpace=wrap;html=1;fontSize=16;dashed=1;fillOpacity=50;strokeOpacity=50;" parent="1" vertex="1">
          <mxGeometry x="-130" y="500" width="1070" height="190" as="geometry" />
        </mxCell>
        <mxCell id="9U1QRrA1M3RrbsubNIXX-25" value="" style="group;fontSize=16;" parent="1" vertex="1" connectable="0">
          <mxGeometry x="-130" y="200" width="1128" height="368" as="geometry" />
        </mxCell>
        <mxCell id="9U1QRrA1M3RrbsubNIXX-20" value="" style="rounded=1;whiteSpace=wrap;html=1;fontSize=16;dashed=1;fillOpacity=50;strokeOpacity=50;" parent="9U1QRrA1M3RrbsubNIXX-25" vertex="1">
          <mxGeometry width="1070" height="190" as="geometry" />
        </mxCell>
        <mxCell id="9U1QRrA1M3RrbsubNIXX-24" value="Domain Service" style="text;html=1;strokeColor=none;fillColor=none;align=center;verticalAlign=middle;whiteSpace=wrap;rounded=0;dashed=1;fontSize=16;" parent="9U1QRrA1M3RrbsubNIXX-25" vertex="1">
          <mxGeometry x="8.492063492063492" y="10" width="127.38095238095238" height="30" as="geometry" />
        </mxCell>
        <mxCell id="9U1QRrA1M3RrbsubNIXX-2" value="TxProcessor" style="rounded=0;whiteSpace=wrap;html=1;fontSize=16;" parent="9U1QRrA1M3RrbsubNIXX-25" vertex="1">
          <mxGeometry x="270" y="70" width="180" height="70" as="geometry" />
        </mxCell>
        <mxCell id="DCo1g2DrOoWNi_xSC4CX-12" value="ClaimTracker" style="rounded=0;whiteSpace=wrap;html=1;fontSize=16;" vertex="1" parent="9U1QRrA1M3RrbsubNIXX-25">
          <mxGeometry x="740" y="60" width="180" height="70" as="geometry" />
        </mxCell>
        <mxCell id="DCo1g2DrOoWNi_xSC4CX-17" value="" style="shape=image;html=1;verticalAlign=top;verticalLabelPosition=bottom;labelBackgroundColor=#ffffff;imageAspect=0;aspect=fixed;image=https://cdn0.iconfinder.com/data/icons/phosphor-regular-vol-3/256/number-circle-one-128.png;fontSize=16;" vertex="1" parent="9U1QRrA1M3RrbsubNIXX-25">
          <mxGeometry x="60" y="220" width="38" height="38" as="geometry" />
        </mxCell>
        <mxCell id="DCo1g2DrOoWNi_xSC4CX-27" value="" style="shape=image;html=1;verticalAlign=top;verticalLabelPosition=bottom;labelBackgroundColor=#ffffff;imageAspect=0;aspect=fixed;image=https://cdn0.iconfinder.com/data/icons/phosphor-regular-vol-3/256/number-circle-six-128.png;fontSize=16;" vertex="1" parent="9U1QRrA1M3RrbsubNIXX-25">
          <mxGeometry x="517" y="182" width="38" height="38" as="geometry" />
        </mxCell>
        <mxCell id="DCo1g2DrOoWNi_xSC4CX-28" value="" style="shape=image;html=1;verticalAlign=top;verticalLabelPosition=bottom;labelBackgroundColor=#ffffff;imageAspect=0;aspect=fixed;image=https://cdn0.iconfinder.com/data/icons/phosphor-thin-vol-3/256/number-circle-seven-thin-128.png;fontSize=16;" vertex="1" parent="9U1QRrA1M3RrbsubNIXX-25">
          <mxGeometry x="960" y="202" width="58" height="58" as="geometry" />
        </mxCell>
        <mxCell id="9U1QRrA1M3RrbsubNIXX-23" value="" style="group;fontSize=16;" parent="1" vertex="1" connectable="0">
          <mxGeometry x="-130" y="-40" width="1070" height="190" as="geometry" />
        </mxCell>
        <mxCell id="9U1QRrA1M3RrbsubNIXX-19" value="" style="rounded=1;whiteSpace=wrap;html=1;fontSize=16;dashed=1;fillOpacity=50;strokeOpacity=50;" parent="9U1QRrA1M3RrbsubNIXX-23" vertex="1">
          <mxGeometry width="1070" height="190" as="geometry" />
        </mxCell>
        <mxCell id="9U1QRrA1M3RrbsubNIXX-22" value="Application Interface" style="text;html=1;strokeColor=none;fillColor=none;align=center;verticalAlign=middle;whiteSpace=wrap;rounded=0;dashed=1;fontSize=16;" parent="9U1QRrA1M3RrbsubNIXX-23" vertex="1">
          <mxGeometry x="8.492063492063492" y="10" width="152.85714285714286" height="30" as="geometry" />
        </mxCell>
        <mxCell id="9U1QRrA1M3RrbsubNIXX-7" value="Reward Service" style="rounded=0;whiteSpace=wrap;html=1;fontSize=16;" parent="9U1QRrA1M3RrbsubNIXX-23" vertex="1">
          <mxGeometry x="700.0039682539682" y="60" width="195.3174603174603" height="80" as="geometry" />
        </mxCell>
        <mxCell id="DCo1g2DrOoWNi_xSC4CX-18" value="" style="shape=image;html=1;verticalAlign=top;verticalLabelPosition=bottom;labelBackgroundColor=#ffffff;imageAspect=0;aspect=fixed;image=https://cdn0.iconfinder.com/data/icons/phosphor-regular-vol-3/256/number-circle-two-128.png;fontSize=16;" vertex="1" parent="9U1QRrA1M3RrbsubNIXX-23">
          <mxGeometry x="340" y="60" width="38" height="38" as="geometry" />
        </mxCell>
        <mxCell id="DCo1g2DrOoWNi_xSC4CX-26" value="handle claim reward" style="edgeStyle=orthogonalEdgeStyle;html=1;align=left;spacingLeft=2;endArrow=block;rounded=0;fontSize=16;" edge="1" parent="9U1QRrA1M3RrbsubNIXX-23">
          <mxGeometry relative="1" as="geometry">
            <mxPoint x="895.3199999999999" y="68.97" as="sourcePoint" />
            <Array as="points">
              <mxPoint x="925.3199999999999" y="68.97" />
            </Array>
            <mxPoint x="900" y="90" as="targetPoint" />
          </mxGeometry>
        </mxCell>
        <mxCell id="DCo1g2DrOoWNi_xSC4CX-20" value="" style="shape=image;html=1;verticalAlign=top;verticalLabelPosition=bottom;labelBackgroundColor=#ffffff;imageAspect=0;aspect=fixed;image=https://cdn0.iconfinder.com/data/icons/phosphor-regular-vol-3/256/number-circle-four-128.png;fontSize=16;" vertex="1" parent="9U1QRrA1M3RrbsubNIXX-23">
          <mxGeometry x="940" y="30" width="38" height="38" as="geometry" />
        </mxCell>
        <mxCell id="9U1QRrA1M3RrbsubNIXX-4" value="Database" style="rounded=0;whiteSpace=wrap;html=1;fontSize=16;" parent="1" vertex="1">
          <mxGeometry x="610" y="560" width="180" height="70" as="geometry" />
        </mxCell>
        <mxCell id="DCo1g2DrOoWNi_xSC4CX-13" style="edgeStyle=orthogonalEdgeStyle;rounded=0;orthogonalLoop=1;jettySize=auto;html=1;exitX=1;exitY=0.5;exitDx=0;exitDy=0;entryX=0;entryY=0.5;entryDx=0;entryDy=0;fontSize=16;" edge="1" parent="1" source="9U1QRrA1M3RrbsubNIXX-5" target="DCo1g2DrOoWNi_xSC4CX-12">
          <mxGeometry relative="1" as="geometry" />
        </mxCell>
        <mxCell id="DCo1g2DrOoWNi_xSC4CX-14" value="consume event: user has claimed" style="edgeLabel;html=1;align=center;verticalAlign=middle;resizable=0;points=[];fontSize=16;" vertex="1" connectable="0" parent="DCo1g2DrOoWNi_xSC4CX-13">
          <mxGeometry x="-0.0633" y="-1" relative="1" as="geometry">
            <mxPoint x="54" y="-34" as="offset" />
          </mxGeometry>
        </mxCell>
        <mxCell id="DCo1g2DrOoWNi_xSC4CX-15" style="edgeStyle=orthogonalEdgeStyle;rounded=0;orthogonalLoop=1;jettySize=auto;html=1;exitX=1;exitY=0.25;exitDx=0;exitDy=0;entryX=0;entryY=0.5;entryDx=0;entryDy=0;fontSize=16;" edge="1" parent="1" source="9U1QRrA1M3RrbsubNIXX-5" target="9U1QRrA1M3RrbsubNIXX-7">
          <mxGeometry relative="1" as="geometry">
            <Array as="points">
              <mxPoint x="360" y="578" />
              <mxPoint x="360" y="60" />
            </Array>
          </mxGeometry>
        </mxCell>
        <mxCell id="DCo1g2DrOoWNi_xSC4CX-16" value="consume event: new eligible referrals" style="edgeLabel;html=1;align=center;verticalAlign=middle;resizable=0;points=[];fontSize=16;" vertex="1" connectable="0" parent="DCo1g2DrOoWNi_xSC4CX-15">
          <mxGeometry x="0.5561" y="4" relative="1" as="geometry">
            <mxPoint x="-10" y="-16" as="offset" />
          </mxGeometry>
        </mxCell>
        <mxCell id="9U1QRrA1M3RrbsubNIXX-5" value="Message Broker" style="rounded=0;whiteSpace=wrap;html=1;fontSize=16;" parent="1" vertex="1">
          <mxGeometry x="140" y="560" width="180" height="70" as="geometry" />
        </mxCell>
        <mxCell id="9U1QRrA1M3RrbsubNIXX-26" value="Infrastructure" style="text;html=1;strokeColor=none;fillColor=none;align=center;verticalAlign=middle;whiteSpace=wrap;rounded=0;dashed=1;fontSize=16;" parent="1" vertex="1">
          <mxGeometry x="-110" y="510" width="130" height="30" as="geometry" />
        </mxCell>
        <mxCell id="DCo1g2DrOoWNi_xSC4CX-1" style="edgeStyle=orthogonalEdgeStyle;rounded=0;orthogonalLoop=1;jettySize=auto;html=1;exitX=0.5;exitY=1;exitDx=0;exitDy=0;entryX=0.5;entryY=0;entryDx=0;entryDy=0;fontSize=16;" edge="1" parent="1" source="9U1QRrA1M3RrbsubNIXX-2" target="9U1QRrA1M3RrbsubNIXX-5">
          <mxGeometry relative="1" as="geometry" />
        </mxCell>
        <mxCell id="DCo1g2DrOoWNi_xSC4CX-4" value="publish event: new eligible referrals" style="edgeLabel;html=1;align=center;verticalAlign=middle;resizable=0;points=[];fontSize=16;" vertex="1" connectable="0" parent="DCo1g2DrOoWNi_xSC4CX-1">
          <mxGeometry x="-0.1182" relative="1" as="geometry">
            <mxPoint x="-135" as="offset" />
          </mxGeometry>
        </mxCell>
        <mxCell id="DCo1g2DrOoWNi_xSC4CX-6" style="edgeStyle=orthogonalEdgeStyle;rounded=0;orthogonalLoop=1;jettySize=auto;html=1;entryX=0.5;entryY=1;entryDx=0;entryDy=0;fontSize=16;" edge="1" parent="1" source="9U1QRrA1M3RrbsubNIXX-7" target="9U1QRrA1M3RrbsubNIXX-5">
          <mxGeometry relative="1" as="geometry">
            <Array as="points">
              <mxPoint x="1180" y="60" />
              <mxPoint x="1180" y="770" />
              <mxPoint x="230" y="770" />
            </Array>
          </mxGeometry>
        </mxCell>
        <mxCell id="DCo1g2DrOoWNi_xSC4CX-7" value="publish event: user has claimed" style="edgeLabel;html=1;align=center;verticalAlign=middle;resizable=0;points=[];fontSize=16;" vertex="1" connectable="0" parent="DCo1g2DrOoWNi_xSC4CX-6">
          <mxGeometry x="0.5737" relative="1" as="geometry">
            <mxPoint x="193" y="-10" as="offset" />
          </mxGeometry>
        </mxCell>
        <mxCell id="DCo1g2DrOoWNi_xSC4CX-10" style="edgeStyle=orthogonalEdgeStyle;rounded=0;orthogonalLoop=1;jettySize=auto;html=1;exitX=0.5;exitY=1;exitDx=0;exitDy=0;entryX=0.5;entryY=0;entryDx=0;entryDy=0;fontSize=16;" edge="1" parent="1" source="DCo1g2DrOoWNi_xSC4CX-12" target="9U1QRrA1M3RrbsubNIXX-4">
          <mxGeometry relative="1" as="geometry" />
        </mxCell>
        <mxCell id="DCo1g2DrOoWNi_xSC4CX-11" value="save claimed info" style="edgeLabel;html=1;align=center;verticalAlign=middle;resizable=0;points=[];fontSize=16;" vertex="1" connectable="0" parent="DCo1g2DrOoWNi_xSC4CX-10">
          <mxGeometry x="-0.3166" y="1" relative="1" as="geometry">
            <mxPoint x="64" y="11" as="offset" />
          </mxGeometry>
        </mxCell>
        <mxCell id="DCo1g2DrOoWNi_xSC4CX-19" value="" style="shape=image;html=1;verticalAlign=top;verticalLabelPosition=bottom;labelBackgroundColor=#ffffff;imageAspect=0;aspect=fixed;image=https://cdn0.iconfinder.com/data/icons/phosphor-regular-vol-3/256/number-circle-three-128.png;fontSize=16;" vertex="1" parent="1">
          <mxGeometry x="830" y="-120" width="32" height="32" as="geometry" />
        </mxCell>
        <mxCell id="DCo1g2DrOoWNi_xSC4CX-23" style="edgeStyle=orthogonalEdgeStyle;rounded=0;orthogonalLoop=1;jettySize=auto;html=1;exitX=0.5;exitY=1;exitDx=0;exitDy=0;entryX=0.5;entryY=0;entryDx=0;entryDy=0;fontSize=16;" edge="1" parent="1" source="DCo1g2DrOoWNi_xSC4CX-22" target="9U1QRrA1M3RrbsubNIXX-7">
          <mxGeometry relative="1" as="geometry" />
        </mxCell>
        <mxCell id="DCo1g2DrOoWNi_xSC4CX-24" value="Claim reward request" style="edgeLabel;html=1;align=center;verticalAlign=middle;resizable=0;points=[];fontSize=16;" vertex="1" connectable="0" parent="DCo1g2DrOoWNi_xSC4CX-23">
          <mxGeometry x="-0.2833" relative="1" as="geometry">
            <mxPoint x="82" as="offset" />
          </mxGeometry>
        </mxCell>
        <mxCell id="DCo1g2DrOoWNi_xSC4CX-22" value="Clients" style="ellipse;whiteSpace=wrap;html=1;aspect=fixed;fontSize=16;" vertex="1" parent="1">
          <mxGeometry x="627.66" y="-260" width="80" height="80" as="geometry" />
        </mxCell>
        <mxCell id="DCo1g2DrOoWNi_xSC4CX-21" value="" style="shape=image;html=1;verticalAlign=top;verticalLabelPosition=bottom;labelBackgroundColor=#ffffff;imageAspect=0;aspect=fixed;image=https://cdn0.iconfinder.com/data/icons/phosphor-regular-vol-3/256/number-circle-five-128.png;fontSize=16;" vertex="1" parent="1">
          <mxGeometry x="600" y="730" width="38" height="38" as="geometry" />
        </mxCell>
      </root>
    </mxGraphModel>
  </diagram>
</mxfile>
